<svg width="40" height="40" viewBox="0 0 40 40" fill="none" xmlns="http://www.w3.org/2000/svg">
<path d="M7.52683 14.0641L12.6308 23.608L7.87494 27.3921L7.08887 33.2081L23.4068 40L8.12622 13.8721L7.52683 14.0641Z" fill="#FBBA00"/>
<path d="M8.12598 13.8693L23.4075 39.9973L26.1139 33.9253L21.8192 30.4294L9.6174 13.4053L8.12598 13.8693Z" fill="#F59D0E"/>
<path d="M9.61914 13.4067L21.822 30.4307L22.5596 29.3026L10.1872 13.2227L9.61914 13.4067Z" fill="#EA5E20"/>
<path d="M10.186 13.2233L22.5584 29.3032L24.5595 26.2713L11.8712 12.6953L10.186 13.2233Z" fill="#FBBA00"/>
<path d="M11.8716 12.695L24.5598 26.2711L31.8434 22.8551L15.914 11.415L11.8716 12.695Z" fill="#F7A707"/>
<path d="M15.9131 11.4147L31.8425 22.8547L34.5408 23.9827L16.2855 11.3027L15.9131 11.4147Z" fill="#EC691F"/>
<path d="M16.2856 11.3058L34.54 23.9858L39.1747 21.7378L23.5853 13.0899L16.6257 11.1938L16.2856 11.3058Z" fill="#F39314"/>
<path d="M39.1743 21.7378L31.0885 15.1219L23.585 13.0898L39.1743 21.7378Z" fill="#F08518"/>
<path d="M6.61618 23.0318L4.61572 21.6558L7.08626 33.2078L7.87112 27.3918L6.61618 23.0318Z" fill="#FFD500"/>
<path d="M6.61816 23.0332L7.87345 27.3932L12.6303 23.6093L8.13281 24.0733L6.61816 23.0332Z" fill="#FDC700"/>
<path d="M9.29367 18.312L6.63574 19.648L8.13425 24.072L12.6317 23.608L7.52679 14.064L7.18672 14.168L9.29367 18.312Z" fill="#F39314"/>
<path d="M6.63415 19.6431L5.76758 20.083L6.61802 23.0271L8.13323 24.0671L6.63415 19.6431Z" fill="#F8AD03"/>
<path d="M5.76734 20.0898L4.43066 20.7619L4.61729 21.6579L6.61775 23.0339L5.76734 20.0898Z" fill="#F9B500"/>
<path d="M3.79248 21.0812L4.61869 21.6572L4.43308 20.7612L3.79248 21.0812Z" fill="#FECC00"/>
<path d="M3.79214 21.0801L4.4319 20.76L0 0L3.79214 21.0801Z" fill="#FCC300"/>
<path d="M4.4319 20.76L5.76895 20.088L0 0L4.4319 20.76Z" fill="#F7A707"/>
<path d="M5.76895 20.088L6.63573 19.648L0 0L5.76895 20.088Z" fill="#F59D0E"/>
<path d="M6.63573 19.648L9.29366 18.3121L5.52576 14.6961L0 0L6.63573 19.648Z" fill="#F18917"/>
<path d="M5.52588 14.7009L9.29378 18.3169L7.18683 14.1729L5.52588 14.7009Z" fill="#EE741D"/>
<path d="M5.52576 14.6961L7.18671 14.168L0 0L5.52576 14.6961Z" fill="#EC691F"/>
<path d="M7.18671 14.168L7.52678 14.064L0 0L7.18671 14.168Z" fill="#F18917"/>
<path d="M7.52678 14.064L8.12715 13.872L0 0L7.52678 14.064Z" fill="#F9B500"/>
<path d="M8.12715 13.872L9.61759 13.408L0 0L8.12715 13.872Z" fill="#F18917"/>
<path d="M0 0L9.61759 13.408L10.1847 13.224L0 0Z" fill="#E85222"/>
<path d="M10.1847 13.224L11.8699 12.696L0.00806824 0H0L10.1847 13.224Z" fill="#F9B101"/>
<path d="M11.8691 12.696L15.9125 11.4161L0.00732422 0L11.8691 12.696Z" fill="#F59D0E"/>
<path d="M15.9125 11.416L16.2849 11.3041L0.00732422 0L15.9125 11.416Z" fill="#E85222"/>
<path d="M0.00732422 0L16.2849 11.3041L16.626 11.192L0.00732422 0Z" fill="#F18917"/>
<path d="M16.626 11.192L23.5856 13.088L0.0154233 0H0.00732422L16.626 11.192Z" fill="#EF7F1A"/>
<path d="M23.5863 13.088L31.0889 15.12L0.0161133 0L23.5863 13.088Z" fill="#EC691F"/>
</svg>
