<svg width="38" height="38" viewBox="0 0 38 38" fill="none" xmlns="http://www.w3.org/2000/svg">
<path d="M9.49992 34.8334C8.62909 34.8334 7.88386 34.5236 7.26425 33.904C6.64464 33.2844 6.33431 32.5386 6.33325 31.6667V6.33341C6.33325 5.46258 6.64358 4.71736 7.26425 4.09775C7.88492 3.47814 8.63014 3.1678 9.49992 3.16675H28.4999C29.3708 3.16675 30.1165 3.47708 30.7372 4.09775C31.3578 4.71841 31.6676 5.46364 31.6666 6.33341V31.6667C31.6666 32.5376 31.3568 33.2833 30.7372 33.904C30.1176 34.5247 29.3718 34.8345 28.4999 34.8334H9.49992ZM9.49992 31.6667H28.4999V6.33341H25.3333V16.0313C25.3333 16.348 25.2013 16.5792 24.9374 16.7248C24.6735 16.8705 24.4096 16.8636 24.1458 16.7042L22.2062 15.5167C21.9423 15.3584 21.6715 15.2792 21.3939 15.2792C21.1163 15.2792 20.8461 15.3584 20.5833 15.5167L18.6437 16.7042C18.3798 16.8626 18.1096 16.8694 17.833 16.7248C17.5564 16.5802 17.4176 16.3491 17.4166 16.0313V6.33341H9.49992V31.6667ZM17.833 16.7248C17.5564 16.5802 17.4176 16.3491 17.4166 16.0313C17.4155 16.3491 17.5554 16.5802 17.833 16.7248Z" fill="#4B4B4B"/>
</svg>
