<svg width="35" height="35" viewBox="0 0 35 35" fill="none" xmlns="http://www.w3.org/2000/svg">
<path d="M26.2501 16.0417C28.423 16.0417 30.4355 16.7272 32.0834 17.8792V11.6667C32.0834 10.048 30.7855 8.75008 29.1667 8.75008H23.3334V5.83341C23.3334 4.21466 22.0355 2.91675 20.4167 2.91675H14.5834C12.9647 2.91675 11.6667 4.21466 11.6667 5.83341V8.75008H5.83341C4.21466 8.75008 2.93133 10.048 2.93133 11.6667L2.91675 27.7084C2.91675 29.3272 4.21466 30.6251 5.83341 30.6251H17.0334C16.2935 29.0698 15.9595 27.3525 16.0624 25.6333C16.1653 23.914 16.7018 22.2488 17.622 20.7929C18.5421 19.337 19.8159 18.1377 21.3246 17.307C22.8333 16.4762 24.5278 16.0409 26.2501 16.0417ZM14.5834 5.83341H20.4167V8.75008H14.5834V5.83341Z" fill="#4B4B4B"/>
<path d="M26.2499 18.9583C22.2249 18.9583 18.9583 22.2249 18.9583 26.2499C18.9583 30.2749 22.2249 33.5416 26.2499 33.5416C30.2749 33.5416 33.5416 30.2749 33.5416 26.2499C33.5416 22.2249 30.2749 18.9583 26.2499 18.9583ZM28.6562 29.677L25.5208 26.5416V21.8749H26.9791V25.9437L29.677 28.6416L28.6562 29.677Z" fill="#4B4B4B"/>
</svg>
