<svg width="27" height="27" viewBox="0 0 27 27" fill="none" xmlns="http://www.w3.org/2000/svg">
<path fill-rule="evenodd" clip-rule="evenodd" d="M12.1484 3.375H14.8501C14.9396 3.375 15.0254 3.41056 15.0887 3.47385C15.152 3.53715 15.1876 3.62299 15.1876 3.7125C15.1876 6.7635 18.4917 8.67206 21.1343 7.14488C21.2114 7.10126 21.3026 7.08974 21.3882 7.11278C21.4738 7.13583 21.5468 7.19161 21.5916 7.26806L22.945 9.61031C22.9891 9.6876 23.001 9.7792 22.9779 9.86517C22.9548 9.95114 22.8987 10.0245 22.8218 10.0693C20.1792 11.5948 20.1792 15.4086 22.8218 16.9358C22.8983 16.9805 22.954 17.0536 22.9771 17.1392C23.0001 17.2247 22.9886 17.3159 22.945 17.3931L21.5916 19.7353C21.5468 19.8118 21.4738 19.8675 21.3882 19.8906C21.3026 19.9136 21.2114 19.9021 21.1343 19.8585C18.4917 18.3313 15.1876 20.2382 15.1876 23.2875C15.1876 23.3767 15.1522 23.4623 15.0893 23.5256C15.0264 23.5888 14.941 23.6246 14.8517 23.625H12.1501C12.0605 23.625 11.9747 23.5894 11.9114 23.5261C11.8481 23.4629 11.8126 23.377 11.8126 23.2875C11.8126 20.2365 8.50843 18.3296 5.86581 19.8551C5.78852 19.8993 5.69692 19.9111 5.61095 19.888C5.52498 19.8649 5.45161 19.8088 5.40681 19.7319L4.05681 17.3897C4.01305 17.3128 4.00127 17.2217 4.02399 17.1362C4.04672 17.0506 4.10214 16.9774 4.17831 16.9324C6.82093 15.4052 6.82093 11.5914 4.17831 10.0642C4.1023 10.0195 4.04685 9.94671 4.02383 9.86155C4.0008 9.77639 4.01203 9.6856 4.05512 9.60862L5.40681 7.26469C5.45189 7.18806 5.52539 7.13232 5.61133 7.10957C5.69727 7.08682 5.78872 7.0989 5.86581 7.14319C8.50843 8.67037 11.8126 6.76181 11.8126 3.71081C11.8126 3.52519 11.9627 3.375 12.1484 3.375ZM9.28131 3.7125C9.28131 2.12625 10.5638 0.84375 12.1484 0.84375H14.8501C16.4363 0.84375 17.7188 2.12625 17.7188 3.7125C17.7193 3.96388 17.7859 4.21071 17.9118 4.42826C18.0377 4.64582 18.2187 4.82645 18.4364 4.95207C18.6541 5.07769 18.9011 5.14388 19.1524 5.14401C19.4038 5.14414 19.6508 5.07821 19.8687 4.95281C20.5272 4.57356 21.3093 4.47108 22.0433 4.66786C22.7773 4.86465 23.4032 5.34463 23.7837 6.00244L25.1371 8.34469C25.9285 9.71663 25.4577 11.4682 24.0874 12.2597C23.8695 12.3856 23.6885 12.5667 23.5627 12.7847C23.4368 13.0027 23.3706 13.25 23.3706 13.5017C23.3706 13.7534 23.4368 14.0007 23.5627 14.2187C23.6885 14.4367 23.8695 14.6178 24.0874 14.7437C24.7452 15.1242 25.2252 15.7501 25.422 16.4841C25.6188 17.2181 25.5163 18.0002 25.1371 18.6587L23.7837 21.0009C23.4032 21.6587 22.7773 22.1387 22.0433 22.3355C21.3093 22.5323 20.5272 22.4298 19.8687 22.0506C19.6508 21.9252 19.4038 21.8592 19.1524 21.8594C18.9011 21.8595 18.6541 21.9257 18.4364 22.0513C18.2187 22.1769 18.0377 22.3576 17.9118 22.5751C17.7859 22.7927 17.7193 23.0395 17.7188 23.2909C17.7188 24.8754 16.4363 26.1596 14.8517 26.1596H12.1501C11.3895 26.1592 10.6603 25.8567 10.1226 25.3188C9.58501 24.7808 9.283 24.0514 9.283 23.2909C9.28249 23.0395 9.21594 22.7927 9.09 22.5751C8.96406 22.3576 8.78315 22.1769 8.56541 22.0513C8.34767 21.9257 8.10074 21.8595 7.84937 21.8594C7.59799 21.8592 7.35099 21.9252 7.13312 22.0506C6.47461 22.4298 5.69252 22.5323 4.95852 22.3355C4.22452 22.1387 3.5986 21.6587 3.21812 21.0009L1.86475 18.6587C1.48549 18.0002 1.38301 17.2181 1.5798 16.4841C1.77658 15.7501 2.25656 15.1242 2.91437 14.7437C3.13193 14.6177 3.31254 14.4366 3.4381 14.2188C3.56365 14.001 3.62974 13.754 3.62974 13.5025C3.62974 13.2511 3.56365 13.0041 3.4381 12.7863C3.31254 12.5684 3.13193 12.3874 2.91437 12.2614C2.25656 11.8809 1.77658 11.255 1.5798 10.521C1.38301 9.78698 1.48549 9.00489 1.86475 8.34637L3.21643 6.00244C3.59691 5.34463 4.22284 4.86465 4.95683 4.66786C5.69083 4.47108 6.47292 4.57356 7.13143 4.95281C7.3493 5.07821 7.5963 5.14414 7.84768 5.14401C8.09906 5.14388 8.34599 5.07769 8.56372 4.95207C8.78146 4.82645 8.96237 4.64582 9.08831 4.42826C9.21425 4.21071 9.28081 3.96388 9.28131 3.7125ZM16.0313 13.5C16.0313 14.1713 15.7646 14.8152 15.2899 15.2899C14.8152 15.7646 14.1714 16.0312 13.5001 16.0312C12.8287 16.0312 12.1849 15.7646 11.7102 15.2899C11.2355 14.8152 10.9688 14.1713 10.9688 13.5C10.9688 12.8287 11.2355 12.1848 11.7102 11.7101C12.1849 11.2354 12.8287 10.9688 13.5001 10.9688C14.1714 10.9688 14.8152 11.2354 15.2899 11.7101C15.7646 12.1848 16.0313 12.8287 16.0313 13.5ZM18.5626 13.5C18.5626 14.8427 18.0292 16.1303 17.0798 17.0797C16.1304 18.0291 14.8427 18.5625 13.5001 18.5625C12.1574 18.5625 10.8697 18.0291 9.92033 17.0797C8.97093 16.1303 8.43756 14.8427 8.43756 13.5C8.43756 12.1573 8.97093 10.8697 9.92033 9.92027C10.8697 8.97087 12.1574 8.4375 13.5001 8.4375C14.8427 8.4375 16.1304 8.97087 17.0798 9.92027C18.0292 10.8697 18.5626 12.1573 18.5626 13.5Z" fill="#4B4B4B"/>
</svg>
