<svg xmlns="http://www.w3.org/2000/svg" width="563" height="161" fill="none" viewBox="0 0 563 161"><path fill="#415A74" d="M210.394 88.0479C209.546 88.0479 208.873 88.7154 208.873 89.5492V146.932C208.873 147.766 209.546 148.433 210.394 148.433H220.806C221.318 148.433 221.767 148.211 222.048 147.766L249.632 109.678V146.932C249.632 147.766 250.312 148.433 251.153 148.433H260.837C261.685 148.433 262.358 147.766 262.358 146.932V89.5492C262.358 88.7154 261.685 88.0479 260.837 88.0479H250.424C249.919 88.0479 249.464 88.2701 249.183 88.6593L221.599 126.804V89.5492C221.599 88.7154 220.919 88.0479 220.077 88.0479H210.394ZM65.9804 135.867H58.548V89.5492C58.548 88.7154 57.8749 88.0479 57.0335 88.0479H16.6599C15.8746 88.0479 15.2015 88.6593 15.1454 89.4377L11.9902 124.913C11.6537 128.972 9.96373 132.809 7.20111 135.867H1.51456C0.67315 135.867 0 136.534 0 137.369V159.499C0 160.332 0.67315 161 1.51456 161H8.4422C9.11532 161 9.68338 160.555 9.90775 159.943L13.624 148.433H53.8222L57.5385 159.943C57.7628 160.555 58.3237 161 59.0038 161H65.9804C66.8288 161 67.5021 160.332 67.5021 159.499V137.369C67.5021 136.534 66.8288 135.867 65.9804 135.867ZM45.8288 135.867H21.2246C23.1949 132.865 24.373 129.528 24.7165 126.025L26.9672 100.615H45.8288V135.867ZM151.671 88.0479C150.886 88.0479 150.205 88.6593 150.149 89.4377L146.433 131.252C146.209 133.865 144.014 135.867 141.371 135.867H136.526C135.684 135.867 135.004 136.534 135.004 137.369V146.932C135.004 147.766 135.684 148.433 136.526 148.433H141.371C150.605 148.433 158.318 141.427 159.159 132.364L161.971 100.615H180.833V146.932C180.833 147.766 181.513 148.433 182.41 148.433H192.037C192.886 148.433 193.615 147.766 193.615 146.932V89.5492C193.615 88.7154 192.886 88.0479 192.037 88.0479H151.671ZM394.831 146.932C394.831 147.766 394.158 148.433 393.316 148.433H386.389C385.716 148.433 385.091 147.989 384.923 147.377L383.633 143.429L365.613 149.268C360.543 150.88 355.032 150.046 350.748 146.988C346.415 143.874 343.883 138.981 343.883 133.698V126.859C343.883 122.077 346.022 117.518 349.738 114.404C353.454 111.29 358.349 109.956 363.138 110.734L382.111 113.793V105.674C382.111 102.894 379.805 100.615 376.986 100.615H353.286C352.438 100.615 351.765 99.947 351.765 99.1132V89.5492C351.765 88.7154 352.438 88.0479 353.286 88.0479H376.986C386.837 88.0479 394.831 95.9437 394.831 105.674V146.932ZM382.111 125.303L360.943 122.578C359.87 122.411 358.748 122.745 357.956 123.467C357.115 124.19 356.659 125.191 356.659 126.303V134.366C356.659 135.533 357.227 136.701 358.18 137.369C359.141 138.091 360.375 138.314 361.56 137.98L382.111 131.919V125.303ZM106.971 88.0479C118.961 88.0479 128.644 97.6119 128.644 109.399V127.026C128.644 138.869 118.961 148.433 106.971 148.433H98.0731C86.083 148.433 76.3998 138.869 76.3998 127.026V109.399C76.3998 97.6119 86.083 88.0479 98.0731 88.0479H106.971ZM115.918 109.399C115.918 104.562 111.921 100.615 106.971 100.615H98.0731C93.1158 100.615 89.1193 104.562 89.1193 109.399V127.026C89.1193 131.919 93.1158 135.867 98.0731 135.867H106.971C111.921 135.867 115.918 131.919 115.918 127.026V109.399ZM318.662 88.0479C317.814 88.0479 317.141 88.7154 317.141 89.5492V111.958H290.398V89.5492C290.398 88.7154 289.718 88.0479 288.876 88.0479H279.193C278.345 88.0479 277.672 88.7154 277.672 89.5492V146.932C277.672 147.766 278.345 148.433 279.193 148.433H288.876C289.718 148.433 290.398 147.766 290.398 146.932V124.524H317.141V146.932C317.141 147.766 317.814 148.433 318.662 148.433H328.345C329.187 148.433 329.86 147.766 329.86 146.932V89.5492C329.86 88.7154 329.187 88.0479 328.345 88.0479H318.662Z"/><path fill="#415A74" d="M175.77 11.0653C175.77 11.8998 175.09 12.5667 174.249 12.5667H157.918V58.8848C157.918 59.7185 157.245 60.3861 156.404 60.3861H146.721C145.872 60.3861 145.199 59.7185 145.199 58.8848V12.5667H128.869C128.027 12.5667 127.347 11.8998 127.347 11.0653V1.50133C127.347 0.667568 128.027 0 128.869 0H174.249C175.09 0 175.77 0.667568 175.77 1.50133V11.0653ZM561.485 0C562.271 0 562.944 0.667572 563 1.44593V58.9402C562.944 59.7739 562.271 60.3861 561.485 60.3861H551.802C550.954 60.3861 550.225 59.7185 550.225 58.8848V39.0338H539.3L526.238 59.6631C525.957 60.1077 525.452 60.3861 524.947 60.3861H513.518C512.95 60.3861 512.445 60.1077 512.165 59.607C511.941 59.1625 511.941 58.551 512.221 58.1064L524.548 38.5338C516.666 36.7541 510.756 29.7481 510.756 21.4077V17.6267C510.756 7.89582 518.749 0 528.6 0H561.485ZM550.225 12.5667H528.6C525.789 12.5667 523.482 14.8464 523.482 17.6267V21.4077C523.482 24.1881 525.789 26.4117 528.6 26.4117H550.225V12.5667ZM234.374 58.8848C234.374 59.7185 233.645 60.3861 232.803 60.3861H225.876C225.203 60.3861 224.635 59.9969 224.41 59.3293L223.176 55.3815L205.1 61.2198C200.087 62.8881 194.576 61.9982 190.235 58.9402C185.958 55.8821 183.427 50.9329 183.427 45.7066V38.8676C183.427 34.0298 185.565 29.4704 189.226 26.3563C192.942 23.2982 197.836 21.9084 202.625 22.6868L221.599 25.7448V17.6267C221.599 14.8464 219.348 12.5667 216.529 12.5667H192.605C191.757 12.5667 191.028 11.8998 191.028 11.0653V1.50133C191.028 0.667568 191.757 0 192.605 0H216.529C226.381 0 234.374 7.89582 234.374 17.6267V58.8848ZM221.599 37.3102L200.487 34.5305C199.358 34.3636 198.292 34.6967 197.443 35.4196C196.602 36.1426 196.146 37.1993 196.146 38.2554V46.3181C196.146 47.5417 196.714 48.6532 197.668 49.3761C198.628 50.0991 199.919 50.266 201.047 49.9322L221.599 43.9269V37.3102ZM434.356 39.0338V44.0384C434.356 53.0464 426.923 60.3861 417.745 60.3861H383.633C382.785 60.3861 382.111 59.7185 382.111 58.8848V1.50133C382.111 0.667568 382.785 0 383.633 0H415.214C424.392 0 431.768 7.33975 431.768 16.3477V18.9058C431.768 22.5199 430.079 25.7448 427.372 27.8022C431.488 29.8596 434.356 34.1406 434.356 39.0338ZM394.831 22.6307H415.214C417.352 22.6307 419.042 20.9632 419.042 18.9058V16.3477C419.042 14.2903 417.352 12.5667 415.214 12.5667H394.831V22.6307ZM421.573 39.0338C421.573 36.921 419.891 35.2528 417.745 35.2528H394.831V47.8194H417.745C419.891 47.8194 421.573 46.1512 421.573 44.0384V39.0338ZM496.739 58.8848C496.739 59.7185 496.059 60.3861 495.218 60.3861H488.29C487.617 60.3861 487 59.9969 486.832 59.3293L485.534 55.3815L467.514 61.2198C462.452 62.8881 456.934 61.9982 452.656 58.9402C448.316 55.8821 445.785 50.9329 445.785 45.7066V38.8676C445.785 34.0298 447.924 29.4704 451.64 26.3563C455.356 23.2982 460.257 21.9084 465.039 22.6868L484.013 25.7448V17.6267C484.013 14.8464 481.706 12.5667 478.887 12.5667H455.188C454.346 12.5667 453.666 11.8998 453.666 11.0653V1.50133C453.666 0.667568 454.346 0 455.188 0H478.887C488.746 0 496.739 7.89582 496.739 17.6267V58.8848ZM484.013 37.3102L462.844 34.5305C461.772 34.3636 460.65 34.6967 459.858 35.4196C459.016 36.1426 458.511 37.1993 458.511 38.2554V46.3181C458.511 47.5417 459.128 48.6532 460.089 49.3761C461.042 50.0991 462.284 50.266 463.462 49.9322L484.013 43.9269V37.3102ZM346.471 0C358.405 0 368.088 9.56402 368.088 21.4077V39.0338C368.088 50.8221 358.405 60.3861 346.471 60.3861H337.517C325.583 60.3861 315.9 50.8221 315.9 39.0338V21.4077C315.9 9.56402 325.583 0 337.517 0H346.471ZM355.369 21.4077C355.369 16.5146 351.372 12.5667 346.471 12.5667H337.517C332.623 12.5667 328.626 16.5146 328.626 21.4077V39.0338C328.626 43.8715 332.623 47.8194 337.517 47.8194H346.471C351.372 47.8194 355.369 43.8715 355.369 39.0338V21.4077ZM290.679 0C289.83 0 289.101 0.667568 289.101 1.50133V23.9097H262.358V1.50133C262.358 0.667568 261.685 0 260.836 0H251.153C250.312 0 249.632 0.667568 249.632 1.50133V58.8848C249.632 59.7185 250.312 60.3861 251.153 60.3861H260.836C261.685 60.3861 262.358 59.7185 262.358 58.8848V36.4764H289.101V58.8848C289.101 59.7185 289.83 60.3861 290.679 60.3861H300.362C301.203 60.3861 301.883 59.7185 301.883 58.8848V1.50133C301.883 0.667568 301.203 0 300.362 0H290.679ZM62.6569 0C61.8155 0 61.1423 0.667568 61.1423 1.50133V58.8848C61.1423 59.7185 61.8155 60.3861 62.6569 60.3861H73.0762C73.5811 60.3861 74.0298 60.1631 74.3173 59.7739L101.902 21.63V58.8848C101.902 59.7185 102.575 60.3861 103.423 60.3861H113.106C113.948 60.3861 114.628 59.7185 114.628 58.8848V1.50133C114.628 0.667568 113.948 0 113.106 0H102.687C102.182 0 101.733 0.222991 101.453 0.667572L73.8615 38.7561V1.50133C73.8615 0.667568 73.1886 0 72.3472 0H62.6569ZM48.3599 1.50133C48.3599 0.667568 47.6869 0 46.8385 0H1.51456C0.67315 0 0 0.667568 0 1.50133V11.0653C0 11.8998 0.67315 12.5667 1.51456 12.5667H17.7889V58.8848C17.7889 59.7185 18.5182 60.3861 19.3666 60.3861H29.0496C29.891 60.3861 30.5713 59.7185 30.5713 58.8848V12.5667H46.8385C47.6869 12.5667 48.3599 11.8998 48.3599 11.0653V1.50133Z"/></svg>