<svg width="134" height="40" viewBox="0 0 134 40" fill="none" xmlns="http://www.w3.org/2000/svg">
<path d="M7.52683 14.0641L12.6308 23.608L7.87494 27.3921L7.08887 33.2081L23.4068 40L8.12622 13.8721L7.52683 14.0641Z" fill="#FBBA00"/>
<path d="M8.12598 13.8693L23.4075 39.9973L26.1139 33.9253L21.8192 30.4294L9.6174 13.4053L8.12598 13.8693Z" fill="#F59D0E"/>
<path d="M9.61914 13.4067L21.822 30.4307L22.5596 29.3026L10.1872 13.2227L9.61914 13.4067Z" fill="#EA5E20"/>
<path d="M10.186 13.2233L22.5584 29.3032L24.5595 26.2713L11.8712 12.6953L10.186 13.2233Z" fill="#FBBA00"/>
<path d="M11.8716 12.695L24.5598 26.2711L31.8434 22.8551L15.914 11.415L11.8716 12.695Z" fill="#F7A707"/>
<path d="M15.9131 11.4147L31.8425 22.8547L34.5408 23.9827L16.2855 11.3027L15.9131 11.4147Z" fill="#EC691F"/>
<path d="M16.2856 11.3058L34.54 23.9858L39.1747 21.7378L23.5853 13.0899L16.6257 11.1938L16.2856 11.3058Z" fill="#F39314"/>
<path d="M39.1743 21.7378L31.0885 15.1219L23.585 13.0898L39.1743 21.7378Z" fill="#F08518"/>
<path d="M6.61618 23.0318L4.61572 21.6558L7.08626 33.2078L7.87112 27.3918L6.61618 23.0318Z" fill="#FFD500"/>
<path d="M6.61816 23.0332L7.87345 27.3932L12.6303 23.6093L8.13281 24.0733L6.61816 23.0332Z" fill="#FDC700"/>
<path d="M9.29367 18.312L6.63574 19.648L8.13425 24.072L12.6317 23.608L7.52679 14.064L7.18672 14.168L9.29367 18.312Z" fill="#F39314"/>
<path d="M6.63415 19.6431L5.76758 20.083L6.61802 23.0271L8.13323 24.0671L6.63415 19.6431Z" fill="#F8AD03"/>
<path d="M5.76734 20.0898L4.43066 20.7619L4.61729 21.6579L6.61775 23.0339L5.76734 20.0898Z" fill="#F9B500"/>
<path d="M3.79248 21.0812L4.61869 21.6572L4.43308 20.7612L3.79248 21.0812Z" fill="#FECC00"/>
<path d="M3.79214 21.0801L4.4319 20.76L0 0L3.79214 21.0801Z" fill="#FCC300"/>
<path d="M4.4319 20.76L5.76895 20.088L0 0L4.4319 20.76Z" fill="#F7A707"/>
<path d="M5.76895 20.088L6.63573 19.648L0 0L5.76895 20.088Z" fill="#F59D0E"/>
<path d="M6.63573 19.648L9.29366 18.3121L5.52576 14.6961L0 0L6.63573 19.648Z" fill="#F18917"/>
<path d="M5.52588 14.7009L9.29378 18.3169L7.18683 14.1729L5.52588 14.7009Z" fill="#EE741D"/>
<path d="M5.52576 14.6961L7.18671 14.168L0 0L5.52576 14.6961Z" fill="#EC691F"/>
<path d="M7.18671 14.168L7.52678 14.064L0 0L7.18671 14.168Z" fill="#F18917"/>
<path d="M7.52678 14.064L8.12715 13.872L0 0L7.52678 14.064Z" fill="#F9B500"/>
<path d="M8.12715 13.872L9.61759 13.408L0 0L8.12715 13.872Z" fill="#F18917"/>
<path d="M0 0L9.61759 13.408L10.1847 13.224L0 0Z" fill="#E85222"/>
<path d="M10.1847 13.224L11.8699 12.696L0.00806824 0H0L10.1847 13.224Z" fill="#F9B101"/>
<path d="M11.8691 12.696L15.9125 11.4161L0.00732422 0L11.8691 12.696Z" fill="#F59D0E"/>
<path d="M15.9125 11.416L16.2849 11.3041L0.00732422 0L15.9125 11.416Z" fill="#E85222"/>
<path d="M0.00732422 0L16.2849 11.3041L16.626 11.192L0.00732422 0Z" fill="#F18917"/>
<path d="M16.626 11.192L23.5856 13.088L0.0154233 0H0.00732422L16.626 11.192Z" fill="#EF7F1A"/>
<path d="M23.5863 13.088L31.0889 15.12L0.0161133 0L23.5863 13.088Z" fill="#EC691F"/>
<path d="M46.9865 34.987C46.9865 33.7904 46.5566 33.0781 45.705 33.0781C44.9078 33.0781 44.4062 33.7619 44.4062 35.0155C44.4062 36.2785 44.8725 36.9243 45.6787 36.9243C46.4396 36.9243 46.9865 36.288 46.9865 34.987ZM46.3145 34.9965C46.3145 35.9936 46.0813 36.364 45.705 36.364C45.2842 36.364 45.0783 36.0032 45.0783 34.9965C45.0783 34.0469 45.3114 33.6385 45.6959 33.6385C46.1086 33.6385 46.3145 34.0184 46.3145 34.9965ZM48.3397 35.0535C48.3397 36.2025 48.8139 36.9243 49.7009 36.9243C49.9784 36.9243 50.2388 36.8483 50.4265 36.7344C50.4981 36.6869 50.5072 36.6394 50.481 36.5634L50.4002 36.2785C50.3821 36.2121 50.3286 36.1931 50.2569 36.2215C50.1136 36.2976 49.9522 36.3355 49.8089 36.3355C49.3245 36.3355 49.0117 35.9462 49.0117 34.9965C49.0117 34.1322 49.2801 33.6479 49.818 33.6479C49.9784 33.6479 50.1227 33.7049 50.266 33.7619C50.3377 33.7999 50.373 33.7714 50.3911 33.7145L50.481 33.3725C50.4981 33.3061 50.49 33.2681 50.4355 33.2301C50.2478 33.1257 49.9875 33.0781 49.7635 33.0781C48.8412 33.0781 48.3397 33.8569 48.3397 35.0535ZM54.2529 34.987C54.2529 33.7904 53.822 33.0781 52.9714 33.0781C52.1742 33.0781 51.6636 33.7619 51.6636 35.0155C51.6636 36.2785 52.1288 36.9243 52.9441 36.9243C53.6969 36.9243 54.2529 36.288 54.2529 34.987ZM53.5718 34.9965C53.5718 35.9936 53.3478 36.364 52.9623 36.364C52.5506 36.364 52.3356 36.0032 52.3356 34.9965C52.3356 34.0469 52.5768 33.6385 52.9532 33.6385C53.3659 33.6385 53.5718 34.0184 53.5718 34.9965ZM56.3135 33.667H57.4507C57.5587 33.667 57.594 33.629 57.6121 33.5435L57.6394 33.2396C57.6394 33.1826 57.6212 33.1447 57.5223 33.1447H55.8473C55.7393 33.1447 55.704 33.1921 55.704 33.2776V36.7249C55.704 36.8104 55.7312 36.8578 55.8291 36.8578H56.6182C57.2449 36.8578 57.7918 36.6204 57.7918 35.6802C57.7918 34.6926 57.1823 34.5691 56.707 34.5691C56.5728 34.5691 56.4295 34.5786 56.3135 34.6071V33.667ZM57.1732 35.7087C57.1732 36.307 56.8866 36.3545 56.5819 36.3545H56.3135V35.101C56.4023 35.0725 56.5102 35.0629 56.6182 35.0629C56.9219 35.0629 57.1732 35.1674 57.1732 35.7087ZM59.7625 35.9556H60.712L60.9179 36.7438C60.9361 36.8104 60.9542 36.8578 61.0612 36.8578H61.4739C61.5728 36.8578 61.59 36.8104 61.5637 36.7249L60.5869 33.2491C60.5688 33.1826 60.5334 33.1447 60.4346 33.1447H60.0673C59.9775 33.1447 59.9421 33.1826 59.9149 33.2586L58.9562 36.7344C58.929 36.8198 58.9653 36.8578 59.037 36.8578H59.4225C59.5203 36.8578 59.5476 36.8104 59.5567 36.7629L59.7625 35.9556ZM59.8967 35.4618L60.0491 34.7781C60.1207 34.4836 60.1833 34.1798 60.2459 33.8759C60.3004 34.1798 60.3538 34.4742 60.4255 34.7686L60.5778 35.4618H59.8967ZM64.4033 35.4428V36.7249C64.4033 36.8104 64.4305 36.8578 64.5375 36.8578H64.8786C64.9684 36.8578 65.0037 36.8104 65.0037 36.7249V33.2776C65.0037 33.1921 64.9684 33.1447 64.8695 33.1447H64.26C63.4447 33.1447 62.9875 33.458 62.9875 34.2937C62.9875 34.7781 63.1581 35.158 63.5345 35.2718V35.3003C63.373 35.4334 63.2741 35.5758 63.2116 35.7657L62.8442 36.7059C62.818 36.7819 62.8271 36.8578 62.9341 36.8578H63.3014C63.4184 36.8578 63.4628 36.8198 63.4981 36.7344L63.7767 35.9271C63.9109 35.5473 63.9916 35.4428 64.2328 35.4428H64.4033ZM63.6061 34.2653C63.6061 33.8094 63.7676 33.6385 64.0986 33.6385H64.4124V34.9395H64.0814C63.7585 34.9395 63.6061 34.7305 63.6061 34.2653ZM70.6213 34.6831H69.4921C69.4114 34.6831 69.3579 34.7211 69.3579 34.816V35.101C69.3579 35.2054 69.4114 35.2339 69.4921 35.2339H70.6304C70.5849 35.9556 70.3438 36.364 69.8594 36.364C69.6979 36.364 69.4659 36.3165 69.3226 36.2691C69.2328 36.231 69.1793 36.2406 69.1611 36.3261L69.0804 36.6394C69.0532 36.7153 69.0713 36.7534 69.152 36.7914C69.3488 36.8863 69.6091 36.9243 69.8503 36.9243C70.8453 36.9243 71.2933 36.1551 71.2933 34.968C71.2933 33.7904 70.8453 33.0781 69.8867 33.0781C69.6445 33.0781 69.367 33.1162 69.1874 33.2016C69.1157 33.2301 69.0895 33.2681 69.1076 33.344L69.1874 33.7049C69.2055 33.7714 69.2772 33.7619 69.3488 33.7334C69.4921 33.6764 69.6627 33.6385 69.815 33.6385C70.3347 33.6385 70.5496 34.0088 70.6213 34.6831ZM73.3357 35.2244H73.4881C73.703 35.2244 73.7747 35.3194 73.9179 35.6708L74.3488 36.7344C74.3932 36.8198 74.4285 36.8578 74.5456 36.8578H74.9311C75.0471 36.8578 75.0562 36.7819 75.0199 36.7059L74.5093 35.4998C74.3932 35.2339 74.2943 35.101 74.1248 35.025V34.9965C74.2943 34.911 74.4114 34.759 74.4739 34.5216L74.6173 33.9708C74.6798 33.7334 74.7071 33.629 74.8231 33.629H74.8594C74.9402 33.629 74.9846 33.6005 74.9846 33.496V33.2396C74.9846 33.1447 74.9402 33.1066 74.8594 33.1066H74.7958C74.3125 33.1066 74.1965 33.3061 74.0885 33.7239L73.9452 34.2653C73.8645 34.5786 73.8019 34.6926 73.5507 34.6926H73.3357V33.2776C73.3357 33.1921 73.3004 33.1447 73.2015 33.1447H72.8524C72.7535 33.1447 72.7181 33.1921 72.7181 33.2776V36.7249C72.7181 36.8104 72.7535 36.8578 72.8524 36.8578H73.2015C73.3004 36.8578 73.3357 36.8104 73.3357 36.7249V35.2244ZM78.7474 34.987C78.7474 33.7904 78.3176 33.0781 77.4659 33.0781C76.6687 33.0781 76.1672 33.7619 76.1672 35.0155C76.1672 36.2785 76.6334 36.9243 77.4397 36.9243C78.2005 36.9243 78.7474 36.288 78.7474 34.987ZM78.0754 34.9965C78.0754 35.9936 77.8423 36.364 77.4659 36.364C77.0451 36.364 76.8393 36.0032 76.8393 34.9965C76.8393 34.0469 77.0724 33.6385 77.4568 33.6385C77.8695 33.6385 78.0754 34.0184 78.0754 34.9965ZM80.8171 35.2244H81.8837V36.7249C81.8837 36.8104 81.919 36.8578 82.0179 36.8578H82.367C82.4659 36.8578 82.5012 36.8104 82.5012 36.7249V33.2776C82.5012 33.1921 82.4659 33.1447 82.367 33.1447H82.0179C81.919 33.1447 81.8837 33.1921 81.8837 33.2776V34.6926H80.8171V33.2776C80.8171 33.1921 80.7807 33.1447 80.6829 33.1447H80.3337C80.2348 33.1447 80.1985 33.1921 80.1985 33.2776V36.7249C80.1985 36.8104 80.2348 36.8578 80.3337 36.8578H80.6829C80.7807 36.8578 80.8171 36.8104 80.8171 36.7249V35.2244ZM86.5335 34.987C86.5335 33.7904 86.1026 33.0781 85.252 33.0781C84.4548 33.0781 83.9533 33.7619 83.9533 35.0155C83.9533 36.2785 84.4185 36.9243 85.2248 36.9243C85.9866 36.9243 86.5335 36.288 86.5335 34.987ZM85.8524 34.9965C85.8524 35.9936 85.6284 36.364 85.2429 36.364C84.8312 36.364 84.6243 36.0032 84.6243 34.9965C84.6243 34.0469 84.8575 33.6385 85.2429 33.6385C85.6546 33.6385 85.8524 34.0184 85.8524 34.9965ZM88.5043 34.5691L89.2207 36.7438C89.248 36.8293 89.2833 36.8578 89.3731 36.8578H89.6334C89.7222 36.8578 89.7586 36.8293 89.7858 36.7438L90.4306 34.5976L90.475 36.7153C90.475 36.8104 90.5023 36.8578 90.6092 36.8578H90.9503C91.0401 36.8578 91.0754 36.8008 91.0754 36.7249L90.9049 33.2586C90.9049 33.1826 90.8787 33.1447 90.7707 33.1447H90.5204C90.4124 33.1447 90.3771 33.1636 90.3499 33.2396L89.5255 35.9556L88.6203 33.2491C88.5941 33.1636 88.5396 33.1447 88.4508 33.1447H88.1904C88.1097 33.1447 88.0562 33.1732 88.0562 33.2681L87.9039 36.7249C87.9039 36.8008 87.9311 36.8578 88.029 36.8578H88.3337C88.4417 36.8578 88.4679 36.8104 88.4679 36.7153L88.5043 34.5691ZM93.2076 35.4143V33.2776C93.2076 33.1921 93.1814 33.1447 93.0825 33.1447H92.7333C92.6344 33.1447 92.5981 33.1921 92.5981 33.2776V36.7249C92.5981 36.8104 92.6254 36.8578 92.7333 36.8578H93.0825C93.1723 36.8578 93.2076 36.8104 93.2076 36.7249V36.288L94.3459 34.5882V36.7249C94.3459 36.8104 94.3812 36.8578 94.4801 36.8578H94.8292C94.9281 36.8578 94.9634 36.8104 94.9634 36.7249V33.2776C94.9634 33.1921 94.9281 33.1447 94.8292 33.1447H94.4801C94.3812 33.1447 94.3459 33.1921 94.3459 33.2776V33.686L93.2076 35.4143ZM97.9291 35.044C97.804 35.0914 97.6516 35.1104 97.4993 35.1104C97.2218 35.1104 96.9887 35.025 96.9887 34.4362V33.2776C96.9887 33.1921 96.9614 33.1447 96.8545 33.1447H96.5053C96.4155 33.1447 96.3792 33.1921 96.3792 33.2776V34.5027C96.3792 35.4808 96.9533 35.6138 97.4003 35.6138C97.5981 35.6138 97.7677 35.5853 97.9291 35.5473V36.7249C97.9291 36.8104 97.9564 36.8578 98.0633 36.8578H98.4135C98.5033 36.8578 98.5386 36.8104 98.5386 36.7249V33.2776C98.5386 33.1921 98.5114 33.1447 98.4135 33.1447H98.0633C97.9655 33.1447 97.9291 33.1921 97.9291 33.2776V35.044ZM100.724 36.3261V35.2244H101.585C101.666 35.2244 101.71 35.1959 101.71 35.0914V34.8256C101.71 34.7211 101.666 34.6926 101.585 34.6926H100.724V33.6764H101.666C101.773 33.6764 101.809 33.6385 101.818 33.553L101.853 33.2396C101.853 33.1826 101.835 33.1447 101.737 33.1447H100.259C100.151 33.1447 100.116 33.1921 100.116 33.2776V36.7249C100.116 36.8104 100.151 36.8578 100.25 36.8578H101.719C101.8 36.8578 101.853 36.8293 101.853 36.7249V36.459C101.853 36.364 101.8 36.3261 101.719 36.3261H100.724ZM103.135 35.0535C103.135 36.2025 103.609 36.9243 104.488 36.9243C104.766 36.9243 105.034 36.8483 105.214 36.7344C105.294 36.6869 105.294 36.6394 105.276 36.5634L105.186 36.2785C105.168 36.2121 105.115 36.1931 105.052 36.2215C104.9 36.2976 104.748 36.3355 104.595 36.3355C104.112 36.3355 103.798 35.9462 103.798 34.9965C103.798 34.1322 104.075 33.6479 104.604 33.6479C104.775 33.6479 104.909 33.7049 105.061 33.7619C105.124 33.7999 105.168 33.7714 105.177 33.7145L105.267 33.3725C105.294 33.3061 105.285 33.2681 105.223 33.2301C105.034 33.1257 104.784 33.0781 104.551 33.0781C103.636 33.0781 103.135 33.8569 103.135 35.0535ZM107.283 35.2244H107.436C107.651 35.2244 107.722 35.3194 107.866 35.6708L108.295 36.7344C108.34 36.8198 108.376 36.8578 108.492 36.8578H108.878C108.995 36.8578 109.003 36.7819 108.967 36.7059L108.457 35.4998C108.34 35.2339 108.251 35.101 108.071 35.025V34.9965C108.242 34.911 108.367 34.759 108.421 34.5216L108.564 33.9708C108.626 33.7334 108.654 33.629 108.771 33.629H108.806C108.887 33.629 108.931 33.6005 108.931 33.496V33.2396C108.931 33.1447 108.887 33.1066 108.806 33.1066H108.753C108.259 33.1066 108.143 33.3061 108.035 33.7239L107.892 34.2653C107.812 34.5786 107.749 34.6926 107.498 34.6926H107.283V33.2776C107.283 33.1921 107.247 33.1447 107.149 33.1447H106.799C106.701 33.1447 106.674 33.1921 106.674 33.2776V36.7249C106.674 36.8104 106.701 36.8578 106.799 36.8578H107.149C107.247 36.8578 107.283 36.8104 107.283 36.7249V35.2244ZM111.037 35.9556H111.987L112.193 36.7438C112.211 36.8104 112.229 36.8578 112.345 36.8578H112.749C112.846 36.8578 112.865 36.8104 112.846 36.7249L111.862 33.2491C111.843 33.1826 111.807 33.1447 111.709 33.1447H111.351C111.252 33.1447 111.216 33.1826 111.199 33.2586L110.231 36.7344C110.204 36.8198 110.24 36.8578 110.312 36.8578H110.696C110.795 36.8578 110.822 36.8104 110.831 36.7629L111.037 35.9556ZM111.171 35.4618L111.324 34.7781C111.395 34.4836 111.458 34.1798 111.52 33.8759C111.575 34.1798 111.628 34.4742 111.7 34.7686L111.852 35.4618H111.171ZM115.678 35.4428V36.7249C115.678 36.8104 115.714 36.8578 115.812 36.8578H116.153C116.251 36.8578 116.287 36.8104 116.287 36.7249V33.2776C116.287 33.1921 116.251 33.1447 116.144 33.1447H115.535C114.719 33.1447 114.262 33.458 114.262 34.2937C114.262 34.7781 114.442 35.158 114.809 35.2718V35.3003C114.648 35.4334 114.558 35.5758 114.486 35.7657L114.119 36.7059C114.092 36.7819 114.101 36.8578 114.218 36.8578H114.576C114.692 36.8578 114.737 36.8198 114.773 36.7344L115.059 35.9271C115.185 35.5473 115.266 35.4428 115.507 35.4428H115.678ZM114.881 34.2653C114.881 33.8094 115.042 33.6385 115.373 33.6385H115.687V34.9395H115.355C115.033 34.9395 114.881 34.7305 114.881 34.2653ZM122.379 35.8131C122.379 35.3099 122.138 34.949 121.824 34.8635V34.8351C122.102 34.6926 122.263 34.4172 122.263 34.0184C122.263 33.3536 121.815 33.0781 121.233 33.0781C121 33.0781 120.623 33.1447 120.453 33.2586C120.381 33.3155 120.346 33.3631 120.381 33.4486L120.453 33.686C120.489 33.7714 120.579 33.7714 120.651 33.7334C120.794 33.667 120.991 33.61 121.179 33.61C121.457 33.61 121.645 33.7429 121.645 34.1038C121.645 34.4836 121.448 34.6071 121.143 34.6071H120.892C120.812 34.6071 120.767 34.6356 120.767 34.7401V34.9775C120.767 35.0819 120.812 35.1104 120.892 35.1104H121.161C121.448 35.1104 121.753 35.2718 121.753 35.7563C121.753 36.174 121.547 36.3735 121.161 36.3735C120.991 36.3735 120.731 36.3261 120.588 36.2595C120.489 36.2121 120.436 36.25 120.409 36.3355L120.319 36.5824C120.283 36.6774 120.31 36.7153 120.39 36.7629C120.543 36.8674 120.884 36.9243 121.152 36.9243C121.842 36.9243 122.379 36.5634 122.379 35.8131ZM126.268 34.987C126.268 33.7904 125.837 33.0781 124.978 33.0781C124.19 33.0781 123.679 33.7619 123.679 35.0155C123.679 36.2785 124.144 36.9243 124.959 36.9243C125.712 36.9243 126.268 36.288 126.268 34.987ZM125.587 34.9965C125.587 35.9936 125.354 36.364 124.978 36.364C124.566 36.364 124.351 36.0032 124.351 34.9965C124.351 34.0469 124.583 33.6385 124.969 33.6385C125.381 33.6385 125.587 34.0184 125.587 34.9965ZM128.329 35.2244H129.403V36.7249C129.403 36.8104 129.431 36.8578 129.53 36.8578H129.879C129.977 36.8578 130.013 36.8104 130.013 36.7249V33.2776C130.013 33.1921 129.986 33.1447 129.879 33.1447H129.53C129.431 33.1447 129.403 33.1921 129.403 33.2776V34.6926H128.329V33.2776C128.329 33.1921 128.302 33.1447 128.195 33.1447H127.844C127.747 33.1447 127.719 33.1921 127.719 33.2776V36.7249C127.719 36.8104 127.747 36.8578 127.844 36.8578H128.195C128.292 36.8578 128.329 36.8104 128.329 36.7249V35.2244ZM132.181 35.9556H133.131L133.337 36.7438C133.355 36.8104 133.372 36.8578 133.489 36.8578H133.892C133.964 36.8578 134 36.8293 134 36.7819C134 36.7629 133.991 36.7438 133.991 36.7249L133.005 33.2491C132.988 33.1826 132.951 33.1447 132.854 33.1447H132.494C132.396 33.1447 132.36 33.1826 132.342 33.2586L131.375 36.7344C131.348 36.8198 131.383 36.8578 131.455 36.8578H131.84C131.939 36.8578 131.967 36.8104 131.975 36.7629L132.181 35.9556ZM132.316 35.4618L132.468 34.7781C132.54 34.4836 132.602 34.1798 132.665 33.8759C132.718 34.1798 132.773 34.4742 132.844 34.7686L132.997 35.4618H132.316Z" fill="#415A74"/>
<path d="M69.8553 7.2893C69.8553 7.40936 69.7574 7.50531 69.6363 7.50531H67.2862V14.1694C67.2862 14.2893 67.1893 14.3854 67.0682 14.3854H65.6747C65.5526 14.3854 65.4557 14.2893 65.4557 14.1694V7.50531H63.1055C62.9844 7.50531 62.8866 7.40936 62.8866 7.2893V5.91327C62.8866 5.79331 62.9844 5.69727 63.1055 5.69727H69.6363C69.7574 5.69727 69.8553 5.79331 69.8553 5.91327V7.2893ZM125.365 5.69727C125.478 5.69727 125.575 5.79331 125.583 5.9053V14.1773C125.575 14.2973 125.478 14.3854 125.365 14.3854H123.972C123.849 14.3854 123.744 14.2893 123.744 14.1694V11.3133H122.172L120.292 14.2813C120.252 14.3453 120.179 14.3854 120.107 14.3854H118.462C118.38 14.3854 118.308 14.3453 118.267 14.2733C118.235 14.2093 118.235 14.1213 118.275 14.0574L120.049 11.2413C118.915 10.9853 118.064 9.9773 118.064 8.77732V8.23333C118.064 6.83328 119.215 5.69727 120.632 5.69727H125.365ZM123.744 7.50531H120.632C120.228 7.50531 119.896 7.8333 119.896 8.23333V8.77732C119.896 9.17735 120.228 9.49727 120.632 9.49727H123.744V7.50531ZM78.2893 14.1694C78.2893 14.2893 78.1843 14.3854 78.0632 14.3854H77.0662C76.9694 14.3854 76.8876 14.3294 76.8553 14.2333L76.6777 13.6653L74.0763 14.5053C73.3548 14.7453 72.5617 14.6173 71.9371 14.1773C71.3215 13.7374 70.9572 13.0253 70.9572 12.2733V11.2894C70.9572 10.5933 71.265 9.93735 71.7917 9.4893C72.3265 9.04932 73.0309 8.84936 73.7201 8.96134L76.4507 9.40132V8.23333C76.4507 7.8333 76.1268 7.50531 75.7211 7.50531H72.2781C72.156 7.50531 72.0511 7.40936 72.0511 7.2893V5.91327C72.0511 5.79331 72.156 5.69727 72.2781 5.69727H75.7211C77.1389 5.69727 78.2893 6.83328 78.2893 8.23333V14.1694ZM76.4507 11.0653L73.4123 10.6654C73.2499 10.6414 73.0965 10.6893 72.9744 10.7933C72.8533 10.8973 72.7877 11.0494 72.7877 11.2013V12.3613C72.7877 12.5374 72.8694 12.6973 73.0067 12.8013C73.1449 12.9053 73.3306 12.9293 73.4931 12.8813L76.4507 12.0173V11.0653ZM107.069 11.3133V12.0333C107.069 13.3294 106 14.3854 104.679 14.3854H99.7696C99.6475 14.3854 99.5506 14.2893 99.5506 14.1694V5.91327C99.5506 5.79331 99.6475 5.69727 99.7696 5.69727H104.315C105.635 5.69727 106.697 6.75328 106.697 8.04931V8.41735C106.697 8.93733 106.454 9.40132 106.064 9.69733C106.657 9.99334 107.069 10.6093 107.069 11.3133ZM101.381 8.95327H104.315C104.622 8.95327 104.865 8.71336 104.865 8.41735V8.04931C104.865 7.7533 104.622 7.50531 104.315 7.50531H101.381V8.95327ZM105.23 11.3133C105.23 11.0093 104.988 10.7693 104.679 10.7693H101.381V12.5773H104.679C104.988 12.5773 105.23 12.3373 105.23 12.0333V11.3133ZM116.047 14.1694C116.047 14.2893 115.949 14.3854 115.828 14.3854H114.831C114.734 14.3854 114.646 14.3294 114.621 14.2333L114.435 13.6653L111.841 14.5053C111.113 14.7453 110.319 14.6173 109.703 14.1773C109.078 13.7374 108.714 13.0253 108.714 12.2733V11.2894C108.714 10.5933 109.022 9.93735 109.557 9.4893C110.092 9.04932 110.797 8.84936 111.485 8.96134L114.216 9.40132V8.23333C114.216 7.8333 113.884 7.50531 113.478 7.50531H110.067C109.946 7.50531 109.848 7.40936 109.848 7.2893V5.91327C109.848 5.79331 109.946 5.69727 110.067 5.69727H113.478C114.897 5.69727 116.047 6.83328 116.047 8.23333V14.1694ZM114.216 11.0653L111.169 10.6654C111.015 10.6414 110.853 10.6893 110.739 10.7933C110.618 10.8973 110.546 11.0494 110.546 11.2013V12.3613C110.546 12.5374 110.634 12.6973 110.773 12.8013C110.91 12.9053 111.089 12.9293 111.258 12.8813L114.216 12.0173V11.0653ZM94.4215 5.69727C96.139 5.69727 97.5325 7.0733 97.5325 8.77732V11.3133C97.5325 13.0093 96.139 14.3854 94.4215 14.3854H93.1329C91.4154 14.3854 90.0219 13.0093 90.0219 11.3133V8.77732C90.0219 7.0733 91.4154 5.69727 93.1329 5.69727H94.4215ZM95.702 8.77732C95.702 8.07331 95.1268 7.50531 94.4215 7.50531H93.1329C92.4285 7.50531 91.8534 8.07331 91.8534 8.77732V11.3133C91.8534 12.0093 92.4285 12.5773 93.1329 12.5773H94.4215C95.1268 12.5773 95.702 12.0093 95.702 11.3133V8.77732ZM86.3922 5.69727C86.2701 5.69727 86.1651 5.79331 86.1651 5.91327V9.1373H82.3165V5.91327C82.3165 5.79331 82.2196 5.69727 82.0975 5.69727H80.704C80.5829 5.69727 80.485 5.79331 80.485 5.91327V14.1694C80.485 14.2893 80.5829 14.3854 80.704 14.3854H82.0975C82.2196 14.3854 82.3165 14.2893 82.3165 14.1694V10.9453H86.1651V14.1694C86.1651 14.2893 86.2701 14.3854 86.3922 14.3854H87.7857C87.9068 14.3854 88.0047 14.2893 88.0047 14.1694V5.91327C88.0047 5.79331 87.9068 5.69727 87.7857 5.69727H86.3922ZM53.5768 5.69727C53.4557 5.69727 53.3588 5.79331 53.3588 5.91327V14.1694C53.3588 14.2893 53.4557 14.3854 53.5768 14.3854H55.0762C55.1489 14.3854 55.2135 14.3533 55.2549 14.2973L59.2246 8.8093V14.1694C59.2246 14.2893 59.3215 14.3854 59.4436 14.3854H60.8371C60.9582 14.3854 61.0561 14.2893 61.0561 14.1694V5.91327C61.0561 5.79331 60.9582 5.69727 60.8371 5.69727H59.3376C59.265 5.69727 59.2004 5.72935 59.16 5.79331L55.1893 11.2733V5.91327C55.1893 5.79331 55.0924 5.69727 54.9713 5.69727H53.5768ZM51.5192 5.91327C51.5192 5.79331 51.4224 5.69727 51.3003 5.69727H44.7775C44.6564 5.69727 44.5596 5.79331 44.5596 5.91327V7.2893C44.5596 7.40936 44.6564 7.50531 44.7775 7.50531H47.1196V14.1694C47.1196 14.2893 47.2246 14.3854 47.3467 14.3854H48.7402C48.8613 14.3854 48.9592 14.2893 48.9592 14.1694V7.50531H51.3003C51.4224 7.50531 51.5192 7.40936 51.5192 7.2893V5.91327Z" fill="#415A74"/>
<path d="M74.8382 18.3652C74.7161 18.3652 74.6192 18.4613 74.6192 18.5812V26.8372C74.6192 26.9573 74.7161 27.0532 74.8382 27.0532H76.3367C76.4103 27.0532 76.4749 27.0213 76.5153 26.9573L80.485 21.4773V26.8372C80.485 26.9573 80.5829 27.0532 80.704 27.0532H82.0975C82.2196 27.0532 82.3165 26.9573 82.3165 26.8372V18.5812C82.3165 18.4613 82.2196 18.3652 82.0975 18.3652H80.599C80.5264 18.3652 80.4608 18.3972 80.4204 18.4532L76.4507 23.9413V18.5812C76.4507 18.4613 76.3528 18.3652 76.2317 18.3652H74.8382ZM54.0551 25.2453H52.9854V18.5812C52.9854 18.4613 52.8886 18.3652 52.7675 18.3652H46.9572C46.8441 18.3652 46.7473 18.4532 46.7392 18.5652L46.2851 23.6692C46.2367 24.2532 45.9935 24.8052 45.5959 25.2453H44.7775C44.6564 25.2453 44.5596 25.3412 44.5596 25.4613V28.6453C44.5596 28.7652 44.6564 28.8613 44.7775 28.8613H45.7745C45.8714 28.8613 45.9531 28.7972 45.9854 28.7092L46.5202 27.0532H52.3053L52.8401 28.7092C52.8724 28.7972 52.9531 28.8613 53.051 28.8613H54.0551C54.1772 28.8613 54.274 28.7652 54.274 28.6453V25.4613C54.274 25.3412 54.1772 25.2453 54.0551 25.2453ZM51.155 25.2453H47.6141C47.8976 24.8133 48.0672 24.3333 48.1166 23.8292L48.4405 20.1733H51.155V25.2453ZM66.3871 18.3652C66.2741 18.3652 66.1762 18.4532 66.1681 18.5652L65.6333 24.5812C65.601 24.9573 65.2852 25.2453 64.9048 25.2453H64.2075C64.0864 25.2453 63.9885 25.3412 63.9885 25.4613V26.8372C63.9885 26.9573 64.0864 27.0532 64.2075 27.0532H64.9048C66.2337 27.0532 67.3437 26.0452 67.4648 24.7412L67.8694 20.1733H70.5839V26.8372C70.5839 26.9573 70.6818 27.0532 70.8109 27.0532H72.1964C72.3185 27.0532 72.4234 26.9573 72.4234 26.8372V18.5812C72.4234 18.4613 72.3185 18.3652 72.1964 18.3652H66.3871ZM101.381 26.8372C101.381 26.9573 101.284 27.0532 101.163 27.0532H100.166C100.069 27.0532 99.9795 26.9893 99.9553 26.9013L99.7696 26.3333L97.1763 27.1733C96.4467 27.4052 95.6536 27.2853 95.037 26.8453C94.4134 26.3972 94.0491 25.6932 94.0491 24.9332V23.9493C94.0491 23.2612 94.3569 22.6052 94.8917 22.1573C95.4265 21.7092 96.1309 21.5172 96.8201 21.6292L99.5507 22.0693V20.9012C99.5507 20.5013 99.2187 20.1733 98.813 20.1733H95.4023C95.2802 20.1733 95.1833 20.0772 95.1833 19.9573V18.5812C95.1833 18.4613 95.2802 18.3652 95.4023 18.3652H98.813C100.231 18.3652 101.381 19.5012 101.381 20.9012V26.8372ZM99.5507 23.7253L96.5042 23.3332C96.3499 23.3092 96.1884 23.3572 96.0744 23.4613C95.9533 23.5653 95.8877 23.7093 95.8877 23.8693V25.0293C95.8877 25.1973 95.9694 25.3653 96.1067 25.4613C96.2449 25.5652 96.4225 25.5973 96.593 25.5493L99.5507 24.6773V23.7253ZM59.9542 18.3652C61.6797 18.3652 63.0733 19.7413 63.0733 21.4372V23.9733C63.0733 25.6772 61.6797 27.0532 59.9542 27.0532H58.6736C56.9481 27.0532 55.5546 25.6772 55.5546 23.9733V21.4372C55.5546 19.7413 56.9481 18.3652 58.6736 18.3652H59.9542ZM61.2418 21.4372C61.2418 20.7413 60.6666 20.1733 59.9542 20.1733H58.6736C57.9602 20.1733 57.3851 20.7413 57.3851 21.4372V23.9733C57.3851 24.6773 57.9602 25.2453 58.6736 25.2453H59.9542C60.6666 25.2453 61.2418 24.6773 61.2418 23.9733V21.4372ZM90.4195 18.3652C90.2974 18.3652 90.2005 18.4613 90.2005 18.5812V21.8053H86.3518V18.5812C86.3518 18.4613 86.2539 18.3652 86.1329 18.3652H84.7393C84.6172 18.3652 84.5203 18.4613 84.5203 18.5812V26.8372C84.5203 26.9573 84.6172 27.0532 84.7393 27.0532H86.1329C86.2539 27.0532 86.3518 26.9573 86.3518 26.8372V23.6132H90.2005V26.8372C90.2005 26.9573 90.2974 27.0532 90.4195 27.0532H91.813C91.9341 27.0532 92.031 26.9573 92.031 26.8372V18.5812C92.031 18.4613 91.9341 18.3652 91.813 18.3652H90.4195Z" fill="#415A74"/>
</svg>
